# Blender v2.91.0 OBJ File: ''
# www.blender.org
mtllib fondfin.mtl
o Icosphere
v 0.000008 -109.332848 0.000035
v -52.997482 -93.004463 -22.251057
v 4.784954 -93.004478 -57.279499
v -90.165344 -48.895798 -37.856056
v -90.537399 -57.480206 21.276218
v 55.955250 -93.004166 -13.149399
v 29.796478 -93.004448 49.152958
v -37.539642 -93.004433 43.527252
v -108.953339 -0.000012 -9.101654
v 8.140701 -48.895851 -97.450485
v -48.212845 -57.480423 -79.531090
v -25.011759 -0.000036 -106.433456
v 95.196892 -48.895351 -22.371161
v 60.740574 -57.480251 -70.429214
v 93.495438 -0.000012 -56.676918
v 50.693176 -48.895790 83.624619
v 85.752182 -57.480221 36.003593
v 82.794983 0.000028 71.404900
v -63.866714 -48.895767 74.053474
v -7.743231 -57.480362 92.680740
v -42.325123 0.000028 100.808006
v -82.794983 -0.000028 -71.404900
v 42.325123 -0.000028 -100.808006
v 108.953339 0.000012 9.101654
v 25.011759 0.000036 106.433456
v -93.495438 0.000012 56.676918
v -50.693176 48.895790 -83.624619
v -85.752182 57.480221 -36.003593
v -29.796478 93.004448 -49.152958
v 63.866714 48.895767 -74.053474
v 7.743231 57.480362 -92.680740
v 37.539642 93.004433 -43.527252
v 90.165344 48.895798 37.856056
v 90.537399 57.480206 -21.276218
v 52.997482 93.004463 22.251057
v -8.140701 48.895851 97.450485
v 48.212845 57.480423 79.531090
v -4.784954 93.004478 57.279499
v -95.196892 48.895351 22.371161
v -60.740574 57.480251 70.429214
v -55.955250 93.004166 13.149399
v -0.000008 109.332848 -0.000035
vt 0.818181 0.000000
vt 0.772726 0.078731
vt 0.863635 0.078731
vt 0.727272 0.157461
vt 0.681818 0.078731
vt 0.636363 0.157461
vt 0.090909 0.000000
vt 0.045454 0.078731
vt 0.136363 0.078731
vt 0.272727 0.000000
vt 0.227273 0.078731
vt 0.318182 0.078731
vt 0.454545 0.000000
vt 0.409090 0.078731
vt 0.500000 0.078731
vt 0.681818 0.236191
vt 0.909090 0.157461
vt 0.818181 0.157461
vt 0.863635 0.236191
vt 0.181818 0.157461
vt 0.090909 0.157461
vt 0.136363 0.236191
vt 0.363636 0.157461
vt 0.272727 0.157461
vt 0.318182 0.236191
vt 0.545454 0.157461
vt 0.454545 0.157461
vt 0.500000 0.236191
vt 0.772726 0.236191
vt 0.954545 0.236191
vt 0.227273 0.236191
vt 0.409090 0.236191
vt 0.590909 0.236191
vt 0.818181 0.314921
vt 0.727272 0.314921
vt 0.772726 0.393651
vt 1.000000 0.314921
vt 0.909091 0.314921
vt 0.954545 0.393651
vt 0.272727 0.314921
vt 0.181818 0.314921
vt 0.227273 0.393651
vt 0.454545 0.314921
vt 0.363636 0.314921
vt 0.409090 0.393651
vt 0.636363 0.314921
vt 0.545454 0.314921
vt 0.590909 0.393651
vt 0.500000 0.393651
vt 0.545454 0.472382
vt 0.318182 0.393651
vt 0.363636 0.472382
vt 0.136363 0.393651
vt 0.181818 0.472382
vt 0.090909 0.314921
vt 0.863635 0.393651
vt 0.909090 0.472382
vt 0.681818 0.393651
vt 0.727272 0.472382
vt 0.045454 0.236191
vt 0.000000 0.157461
vt 0.590909 0.078731
vt 0.636363 0.000000
vn -0.1717 -0.9435 -0.2833
vn -0.7430 -0.6617 -0.1007
vn 0.2164 -0.9435 -0.2509
vn 0.3055 -0.9435 0.1283
vn -0.0276 -0.9435 0.3302
vn -0.9423 -0.3304 -0.0539
vn -0.2399 -0.3304 -0.9128
vn 0.7940 -0.3304 -0.5103
vn 0.7307 -0.3304 0.5975
vn -0.3424 -0.3304 0.8795
vn -0.9147 -0.1256 -0.3841
vn 0.0826 -0.1256 -0.9886
vn 0.9658 -0.1256 -0.2270
vn 0.5143 -0.1256 0.8484
vn -0.6479 -0.1256 0.7513
vn -0.5419 0.6617 -0.5182
vn 0.3254 0.6617 -0.6755
vn 0.7430 0.6617 0.1007
vn 0.1338 0.6617 0.7377
vn -0.6603 0.6617 0.3552
vn -0.2164 0.9435 0.2509
vn -0.3965 0.7947 0.4597
vn -0.2543 0.6617 0.7053
vn 0.1717 0.9435 0.2833
vn 0.3147 0.7947 0.5191
vn 0.5922 0.6617 0.4598
vn 0.3225 0.9435 -0.0758
vn 0.5910 0.7947 -0.1389
vn 0.6203 0.6617 -0.4211
vn 0.0276 0.9435 -0.3302
vn 0.0505 0.7947 -0.6050
vn -0.2088 0.6617 -0.7201
vn -0.3055 0.9435 -0.1283
vn -0.5597 0.7947 -0.2350
vn -0.7494 0.6617 -0.0239
vn -0.7940 0.3304 0.5103
vn -0.6415 0.1876 0.7438
vn -0.3881 0.3304 0.8604
vn 0.2399 0.3304 0.9128
vn 0.5092 0.1876 0.8400
vn 0.6983 0.3304 0.6349
vn 0.9423 0.3304 0.0539
vn 0.9562 0.1876 -0.2247
vn 0.8197 0.3304 -0.4680
vn 0.3424 0.3304 -0.8795
vn 0.0818 0.1876 -0.9788
vn -0.1918 0.3304 -0.9242
vn -0.7307 0.3304 -0.5975
vn -0.9057 0.1876 -0.3802
vn -0.9382 0.3304 -0.1032
vn -0.0826 0.1256 0.9886
vn -0.0818 -0.1876 0.9788
vn 0.1918 -0.3304 0.9242
vn 0.9147 0.1256 0.3841
vn 0.9057 -0.1876 0.3802
vn 0.9382 -0.3304 0.1032
vn 0.6479 0.1256 -0.7513
vn 0.6415 -0.1876 -0.7438
vn 0.3881 -0.3304 -0.8604
vn -0.5143 0.1256 -0.8484
vn -0.5092 -0.1876 -0.8400
vn -0.6983 -0.3304 -0.6349
vn -0.9658 0.1256 0.2270
vn -0.9562 -0.1876 0.2247
vn -0.8197 -0.3304 0.4680
vn -0.3254 -0.6617 0.6755
vn -0.0505 -0.7947 0.6050
vn 0.2088 -0.6617 0.7201
vn 0.5419 -0.6617 0.5182
vn 0.5597 -0.7947 0.2350
vn 0.7494 -0.6617 0.0239
vn 0.6603 -0.6617 -0.3552
vn 0.3965 -0.7947 -0.4597
vn 0.2543 -0.6617 -0.7053
vn -0.6203 -0.6617 0.4211
vn -0.5910 -0.7947 0.1389
vn -0.3225 -0.9435 0.0758
vn -0.1338 -0.6617 -0.7377
vn -0.3147 -0.7947 -0.5191
vn -0.5922 -0.6617 -0.4598
usemtl Material.001
s 1
f 1/1/1 2/2/1 3/3/1
f 4/4/2 2/5/2 5/6/2
f 1/7/3 3/8/3 6/9/3
f 1/10/4 6/11/4 7/12/4
f 1/13/5 7/14/5 8/15/5
f 4/4/6 5/6/6 9/16/6
f 10/17/7 11/18/7 12/19/7
f 13/20/8 14/21/8 15/22/8
f 16/23/9 17/24/9 18/25/9
f 19/26/10 20/27/10 21/28/10
f 4/4/11 9/16/11 22/29/11
f 10/17/12 12/19/12 23/30/12
f 13/20/13 15/22/13 24/31/13
f 16/23/14 18/25/14 25/32/14
f 19/26/15 21/28/15 26/33/15
f 27/34/16 28/35/16 29/36/16
f 30/37/17 31/38/17 32/39/17
f 33/40/18 34/41/18 35/42/18
f 36/43/19 37/44/19 38/45/19
f 39/46/20 40/47/20 41/48/20
f 41/48/21 38/49/21 42/50/21
f 41/48/22 40/47/22 38/49/22
f 40/47/23 36/43/23 38/49/23
f 38/45/24 35/51/24 42/52/24
f 38/45/25 37/44/25 35/51/25
f 37/44/26 33/40/26 35/51/26
f 35/42/27 32/53/27 42/54/27
f 35/42/28 34/41/28 32/53/28
f 34/41/29 30/55/29 32/53/29
f 32/39/30 29/56/30 42/57/30
f 32/39/31 31/38/31 29/56/31
f 31/38/32 27/34/32 29/56/32
f 29/36/33 41/58/33 42/59/33
f 29/36/34 28/35/34 41/58/34
f 28/35/35 39/46/35 41/58/35
f 26/33/36 40/47/36 39/46/36
f 26/33/37 21/28/37 40/47/37
f 21/28/38 36/43/38 40/47/38
f 25/32/39 37/44/39 36/43/39
f 25/32/40 18/25/40 37/44/40
f 18/25/41 33/40/41 37/44/41
f 24/31/42 34/41/42 33/40/42
f 24/31/43 15/22/43 34/41/43
f 15/22/44 30/55/44 34/41/44
f 23/30/45 31/38/45 30/37/45
f 23/30/46 12/19/46 31/38/46
f 12/19/47 27/34/47 31/38/47
f 22/29/48 28/35/48 27/34/48
f 22/29/49 9/16/49 28/35/49
f 9/16/50 39/46/50 28/35/50
f 21/28/51 25/32/51 36/43/51
f 21/28/52 20/27/52 25/32/52
f 20/27/53 16/23/53 25/32/53
f 18/25/54 24/31/54 33/40/54
f 18/25/55 17/24/55 24/31/55
f 17/24/56 13/20/56 24/31/56
f 15/22/57 23/60/57 30/55/57
f 15/22/58 14/21/58 23/60/58
f 14/21/59 10/61/59 23/60/59
f 12/19/60 22/29/60 27/34/60
f 12/19/61 11/18/61 22/29/61
f 11/18/62 4/4/62 22/29/62
f 9/16/63 26/33/63 39/46/63
f 9/16/64 5/6/64 26/33/64
f 5/6/65 19/26/65 26/33/65
f 8/15/66 20/27/66 19/26/66
f 8/15/67 7/14/67 20/27/67
f 7/14/68 16/23/68 20/27/68
f 7/12/69 17/24/69 16/23/69
f 7/12/70 6/11/70 17/24/70
f 6/11/71 13/20/71 17/24/71
f 6/9/72 14/21/72 13/20/72
f 6/9/73 3/8/73 14/21/73
f 3/8/74 10/61/74 14/21/74
f 5/6/75 8/62/75 19/26/75
f 5/6/76 2/5/76 8/62/76
f 2/5/77 1/63/77 8/62/77
f 3/3/78 11/18/78 10/17/78
f 3/3/79 2/2/79 11/18/79
f 2/2/80 4/4/80 11/18/80
