# Blender v2.91.0 OBJ File: 'cubetexture.blend'
# www.blender.org
mtllib cubetexture.mtl
o Cube
v 1.000000 1.000000 -1.000000
v 1.000000 -1.000000 -1.000000
v 1.000000 1.000000 1.000000
v 1.000000 -1.000000 1.000000
v -1.000000 1.000000 -1.000000
v -1.000000 -1.000000 -1.000000
v -1.000000 1.000000 1.000000
v -1.000000 -1.000000 1.000000
vt -0.004549 0.967920
vt 0.988924 0.967920
vt 0.988924 0.055517
vt -0.004549 0.055517
vt -0.001532 0.000558
vt 0.997910 0.000558
vt 0.997910 1.000000
vt -0.001532 1.000000
vt -0.000041 0.000000
vt 0.999581 0.000000
vt 0.999581 0.999621
vt -0.000041 0.999621
vt 0.005859 0.007579
vt 0.990467 0.007579
vt 0.990467 0.992188
vt 0.005859 0.992188
vt 0.124876 0.125475
vt 0.999525 0.125475
vt 0.999525 1.000124
vt 0.124876 1.000124
vt 0.004626 -0.003643
vt 0.997782 -0.003643
vt 0.997782 0.989513
vt 0.004626 0.989513
vn 0.0000 1.0000 0.0000
vn 0.0000 0.0000 1.0000
vn -1.0000 0.0000 0.0000
vn 0.0000 -1.0000 0.0000
vn 1.0000 0.0000 0.0000
vn 0.0000 0.0000 -1.0000
usemtl Material
s off
f 1/1/1 5/2/1 7/3/1 3/4/1
f 4/5/2 3/6/2 7/7/2 8/8/2
f 8/9/3 7/10/3 5/11/3 6/12/3
f 6/13/4 2/14/4 4/15/4 8/16/4
f 2/17/5 1/18/5 3/19/5 4/20/5
f 6/21/6 5/22/6 1/23/6 2/24/6
